<?xml version="1.0" ?><!DOCTYPE svg  PUBLIC '-//W3C//DTD SVG 1.1//EN'  'http://www.w3.org/Graphics/SVG/1.1/DTD/svg11.dtd'><svg enable-background="new 0 0 512 512" height="512px" id="Слой_1" version="1.1" viewBox="0 0 512 512" width="512px" xml:space="preserve" xmlns="http://www.w3.org/2000/svg" xmlns:xlink="http://www.w3.org/1999/xlink"><g id="Mission_1_"><path d="M512,255.999c0,141.387-114.617,256-256,256c-141.391,0-256-114.613-256-256   C0,114.616,114.609,0.001,256,0.001C397.383,0.001,512,114.616,512,255.999z" fill="#AC92EA"/><g id="Mission"><path d="M107.77,408.233c17.445-32.508,38.152-69.344,44.48-75.672c4.164-4.164,9.703-6.461,15.594-6.457    c5.895,0,11.43,2.293,15.598,6.457c8.598,8.602,8.598,22.594-0.004,31.195C177.109,370.085,140.277,390.788,107.77,408.233z" fill="#FECD57"/><path d="M189.855,326.147c-6.078-6.078-14.043-9.117-22.012-9.113c-7.965,0-15.934,3.035-22.008,9.113    C133.684,338.308,86,430.003,86,430.003s91.703-47.684,103.852-59.832C202.008,358.007,202.008,338.308,189.855,326.147z     M177.051,357.319c-1.102,1.031-8.262,6.945-46.555,28.188c21.238-38.297,27.156-45.453,28.195-46.555    c2.445-2.441,5.695-3.773,9.156-3.773c3.465-0.004,6.723,1.348,9.18,3.797C182.078,344.034,182.086,352.245,177.051,357.319z" fill="#F5BA45"/><path d="M197.961,355.327c0,0-9.23-6.875-19.625-17.273s-18.047-20.402-18.047-20.402l5.098-19.215l52.188,52.18    L197.961,355.327z" fill="#303842"/><path d="M214.102,354.901c0,0-13.117-9.77-27.902-24.551c-14.777-14.777-25.656-29.004-25.656-29.004l7.25-27.324    l74.188,74.188L214.102,354.901z" fill="#424953"/><g><path d="M327.973,329.241l-5.289-42.391L241.98,348.21l-5.129,69.297     C274.348,398.979,327.973,329.241,327.973,329.241z" fill="#D94452"/><path d="M186.762,188.026l42.395,5.295l-61.363,80.697l-69.297,5.137     C117.027,241.663,186.762,188.026,186.762,188.026z" fill="#D94452"/></g><path d="M426,90.003c-72.105,13.127-141.102,47.564-196.852,103.313c-24.605,24.605-45.055,51.801-61.363,80.703    c0,0,21.746,26.016,34.473,38.941c12.734,12.914,39.73,35.254,39.73,35.254c28.898-16.301,56.09-36.754,80.699-61.367    C378.438,231.108,412.883,162.112,426,90.003z" fill="#E5E8EC"/><path d="M247.727,281.108c-29.887,29.883-80.055,67.223-80.055,67.223s37.336-50.168,67.23-80.059    c29.887-29.891,38.398-30.805,41.016-28.188C278.539,242.698,277.617,251.21,247.727,281.108z" fill="#EC5564"/><path d="M296.305,219.7c-12.988-12.988-12.988-34.119,0-47.105c12.988-12.99,34.117-12.988,47.105,0    c12.992,12.984,12.992,34.115,0,47.105C330.426,232.683,309.289,232.687,296.305,219.7z" fill="#303842"/><path d="M347.035,168.972c-15.008-15.014-39.348-15.014-54.355-0.008c-15.008,15.012-15.008,39.352,0,54.359    c15.008,15.012,39.348,15.012,54.355,0.002C362.047,208.312,362.047,183.979,347.035,168.972z M339.785,216.075    c-10.988,10.986-28.863,10.986-39.855-0.002c-10.988-10.986-10.992-28.871,0-39.854c10.988-10.992,28.867-10.99,39.855-0.002    S350.773,205.089,339.785,216.075z" fill="#A9B1BC"/><path d="M372.875,143.128c9.332,9.328,19.57,17.184,30.434,23.572c10.363-24.838,17.938-50.559,22.691-76.697    c-26.137,4.756-51.859,12.328-76.695,22.688C355.691,123.556,363.551,133.8,372.875,143.128z" fill="#D94452"/></g><path d="M491.496,155.497L426,90.003c-0.734,4.027-1.555,8.041-2.422,12.047c-0.254,1.164-0.512,2.324-0.781,3.494   c-0.684,3.014-1.402,6.018-2.16,9.016c-0.285,1.135-0.559,2.268-0.855,3.398c-1.004,3.807-2.051,7.604-3.18,11.387   c-0.355,1.201-0.746,2.393-1.113,3.59c-0.82,2.658-1.664,5.307-2.543,7.947c-0.531,1.621-1.086,3.244-1.652,4.859   c-0.816,2.35-1.668,4.691-2.535,7.029c-0.652,1.775-1.309,3.553-1.992,5.32c-1.117,2.881-2.266,5.75-3.457,8.609   c-0.004-0.006-0.008-0.006-0.02-0.014c-18.219,43.686-45.059,84.625-80.602,120.16c0,0.004,0,0.004-0.004,0.008l5.289,42.387   c0,0-53.625,69.738-91.121,88.266l5.129-69.297l-27.879,6.691c0,0-1.246-0.93-3.398-2.637l-12.594,3.023   c-1.277,5.449-4.008,10.633-8.258,14.883C177.703,382.319,86,430.003,86,430.003l54.383,54.383   c34.738,17.621,74,27.613,115.617,27.613c141.383,0,256-114.613,256-256C512,220.321,504.684,186.356,491.496,155.497z" fill="#967ADA"/></g></svg>